<svg width="63" height="62" xmlns="http://www.w3.org/2000/svg" xmlns:xlink="http://www.w3.org/1999/xlink" xml:space="preserve" overflow="hidden"><g transform="translate(-362 -280)"><g><g><g><g><path d="M32.1551 19.8603C31.5691 19.976 31.1437 20.4935 31.1437 21.0908L31.1437 23.2747C31.1437 23.8722 31.5693 24.3897 32.1552 24.5051L32.8886 24.6497 33.3901 25.8607 32.9738 26.4813C32.6411 26.9776 32.7062 27.6442 33.1286 28.0666L34.6728 29.6107C35.095 30.0331 35.7616 30.0982 36.2581 29.7657L36.8789 29.3494 38.0898 29.8509 38.2344 30.5842C38.3498 31.1704 38.8673 31.5958 39.4648 31.5958L41.6487 31.5958C42.2461 31.5958 42.7635 31.1703 42.8792 30.5842L43.0238 29.8507 44.2347 29.3492 44.8557 29.7656C45.3519 30.0981 46.0185 30.0331 46.4408 29.6106L47.9849 28.0666C48.4076 27.6442 48.4727 26.9775 48.14 26.4811L47.7237 25.8604 48.2252 24.6495 48.9584 24.5049C49.5447 24.3894 49.9701 23.8719 49.9701 23.2745L49.9701 21.0905C49.9701 20.4932 49.5447 19.9756 48.9586 19.86L48.2252 19.7154 47.7237 18.5045 48.1399 17.8839C48.4727 17.3877 48.4076 16.7209 47.9851 16.2985L46.4408 14.7542C46.0184 14.3318 45.3517 14.2665 44.8555 14.5994L44.2349 15.0157 43.024 14.5142 42.8794 13.7807C42.7638 13.1946 42.2462 12.7692 41.649 12.7692L39.4651 12.7692C38.8677 12.7692 38.3503 13.1946 38.2346 13.7808L38.09 14.5142 36.8791 15.0157 36.2583 14.5994C35.7621 14.2667 35.0954 14.3319 34.6731 14.7543L33.1287 16.2987C32.7065 16.7212 32.6414 17.388 32.9741 17.8839L33.3904 18.5046 32.8888 19.7155 32.1554 19.8601ZM33.6619 21.2912C33.9402 21.2363 34.1725 21.046 34.281 20.7839L35.1299 18.7341C35.2384 18.472 35.2087 18.1731 35.0508 17.9376L34.5838 17.2411 35.6152 16.2096 36.3118 16.6767C36.5473 16.8347 36.846 16.8642 37.1082 16.7559L39.158 15.907C39.42 15.7985 39.6104 15.5661 39.6652 15.2878L39.8275 14.465 41.2861 14.465C41.2861 14.465 41.4483 15.2878 41.4483 15.2878 41.5032 15.5661 41.6936 15.7985 41.9556 15.907L44.0055 16.756C44.2674 16.8645 44.5663 16.8347 44.8019 16.6768L45.4984 16.2097 46.5298 17.2411 46.0627 17.9376C45.9047 18.1731 45.875 18.472 45.9835 18.7341L46.8324 20.7839C46.9409 21.046 47.1733 21.2363 47.4516 21.2912L48.2745 21.4535 48.2745 22.912 47.4516 23.0743C47.1733 23.1291 46.9409 23.3195 46.8324 23.5816L45.9835 25.6314C45.875 25.8935 45.9047 26.1923 46.0627 26.4279L46.5298 27.1243 45.4983 28.1557 44.8018 27.6888C44.5663 27.5308 44.2674 27.5011 44.0053 27.6097L41.9556 28.4586C41.6936 28.5671 41.5032 28.7994 41.4483 29.0776L41.2861 29.9007 39.8276 29.9007 39.6653 29.0776C39.6105 28.7994 39.4201 28.567 39.1581 28.4586L37.1083 27.6097C36.8462 27.5011 36.5474 27.5309 36.3119 27.6888L35.6155 28.1557 34.584 27.1244 35.0511 26.4279C35.2091 26.1923 35.2388 25.8934 35.1303 25.6314L34.2814 23.5816C34.1729 23.3195 33.9405 23.1291 33.6622 23.0743L32.8393 22.912 32.8393 21.4535 33.6621 21.2912ZM40.5568 27.4229C41.9567 27.4229 43.2725 26.8778 44.2623 25.8881 46.3055 23.8449 46.3055 20.5204 44.2623 18.4773 43.2726 17.4876 41.9566 16.9425 40.5568 16.9425 39.1571 16.9425 37.8412 17.4876 36.8514 18.4773 35.8618 19.467 35.3165 20.7831 35.3165 22.1828 35.3165 23.5825 35.8615 24.8985 36.8514 25.8881 37.8412 26.8778 39.1571 27.4229 40.5568 27.4229ZM38.0502 19.676C38.7197 19.0064 39.61 18.6377 40.557 18.6377 41.5039 18.6377 42.3941 19.0064 43.0636 19.6759 43.7331 20.3454 44.1019 21.2357 44.1019 22.1826 44.1019 23.1294 43.7331 24.0197 43.0636 24.6892 42.3941 25.3587 41.5039 25.7275 40.557 25.7275 39.61 25.7275 38.7198 25.3587 38.0503 24.6892 37.3808 24.0197 37.0121 23.1295 37.0121 22.1826 37.0121 21.2356 37.3808 20.3454 38.0503 19.6759ZM31.3236 42.1397C31.9099 42.0244 32.3354 41.5068 32.3354 40.9092L32.3354 38.7253C32.3354 38.1276 31.9099 37.6101 31.3239 37.495L30.5906 37.3503 30.089 36.1393 30.5053 35.5186C30.8381 35.0225 30.7729 34.3558 30.3505 33.9334L28.806 32.3889C28.3834 31.9666 27.7168 31.9014 27.2209 32.2343L26.6003 32.6506 25.3894 32.1491 25.2448 31.4156C25.1291 30.8295 24.6116 30.4041 24.0143 30.4041L21.8304 30.4041C21.2329 30.4041 20.7154 30.8296 20.6 31.4156L20.4554 32.1491 19.2445 32.6506 18.6239 32.2344C18.1279 31.9014 17.4611 31.9664 17.0384 32.3891L15.4941 33.9334C15.0717 34.3558 15.0065 35.0225 15.3393 35.5186L15.7556 36.1393 15.2541 37.3504 14.5207 37.495C13.9346 37.6105 13.5092 38.1281 13.5092 38.7253L13.5092 40.9092C13.5092 41.5069 13.9347 42.0244 14.5207 42.1395L15.2541 42.2841 15.7556 43.4952 15.3396 44.1157C15.0067 44.6118 15.0717 45.2785 15.4941 45.7013L17.0384 47.2455C17.4609 47.6679 18.1276 47.733 18.6236 47.4002L19.2443 46.9839 20.4553 47.4855 20.5999 48.2187C20.7153 48.8049 21.2328 49.2303 21.8303 49.2303L24.0142 49.2303C24.6117 49.2303 25.1293 48.8048 25.2447 48.2188L25.3892 47.4853 26.6002 46.9838 27.2208 47.4C27.7168 47.7329 28.3838 47.6679 28.8063 47.2453L30.3507 45.7009C30.7731 45.2784 30.8381 44.6117 30.5053 44.1158L30.089 43.4951 30.5906 42.2841 31.3236 42.1395ZM29.8172 40.7089C29.5389 40.7638 29.3065 40.9541 29.198 41.2161L28.3491 43.2659C28.2406 43.528 28.2703 43.827 28.4283 44.0624L28.8954 44.7589 27.864 45.7904 27.1674 45.3233C26.932 45.1653 26.6331 45.1358 26.3709 45.2441L24.3211 46.093C24.059 46.2015 23.8687 46.4339 23.8138 46.7122L23.6515 47.5352 22.193 47.5352 22.0307 46.7123C21.9759 46.434 21.7855 46.2016 21.5234 46.0932L19.4736 45.2443C19.2115 45.1356 18.9128 45.1653 18.6771 45.3233L17.9806 45.7904 16.9493 44.7589 17.4163 44.0624C17.5742 43.8269 17.6039 43.528 17.4954 43.2659L16.6465 41.2161C16.538 40.9541 16.3056 40.7638 16.0274 40.7089L15.2044 40.5465 15.2044 39.088 16.0274 38.9256C16.3056 38.8707 16.538 38.6804 16.6465 38.4184L17.4954 36.3686C17.6039 36.1065 17.5742 35.8075 17.4162 35.5721L16.9491 34.8756 17.9805 33.8441 18.677 34.3112C18.9125 34.4692 19.2115 34.499 19.4734 34.3903L21.5233 33.5413C21.7854 33.4328 21.9757 33.2005 22.0306 32.9222L22.1929 32.0993 23.6514 32.0993 23.8137 32.9222C23.8685 33.2005 24.0589 33.4329 24.321 33.5413L26.3708 34.3903C26.6328 34.4988 26.9317 34.4691 27.1673 34.3112L27.8638 33.8441 28.8953 34.8756 28.4282 35.5721C28.2702 35.8075 28.2405 36.1065 28.349 36.3686L29.198 38.4184C29.3065 38.6804 29.5389 38.8707 29.8172 38.9256L30.6401 39.088 30.6401 40.5465ZM22.9223 34.577C21.5226 34.577 20.2067 35.1222 19.217 36.112 18.2273 37.1017 17.6821 38.4177 17.6821 39.8174 17.6821 41.2172 18.2272 42.5331 19.217 43.5228 20.2386 44.5446 21.5802 45.0552 22.9223 45.0551 24.264 45.0551 25.6062 44.5442 26.6278 43.5229 27.6175 42.5331 28.1627 41.2172 28.1627 39.8174 28.1627 38.4176 27.6176 37.1017 26.6278 36.112 25.6381 35.1222 24.322 34.577 22.9223 34.577ZM25.429 42.324C24.0468 43.7062 21.7978 43.7062 20.4157 42.324 19.746 41.6546 19.3773 40.7643 19.3773 39.8174 19.3773 38.8706 19.746 37.9802 20.4157 37.3108 21.0852 36.6412 21.9754 36.2724 22.9223 36.2724 23.8693 36.2724 24.7594 36.6412 25.429 37.3107 26.0985 37.9802 26.4672 38.8705 26.4672 39.8173 26.4672 40.7642 26.0985 41.6546 25.4288 42.324ZM37.7218 39.0908C38.0024 39.4655 37.9261 39.9967 37.5513 40.2774 37.1765 40.5577 36.6453 40.4814 36.3647 40.1069L36.2417 39.9427C36.2172 43.4194 34.8448 46.7281 32.3389 49.2341 29.833 51.74 26.4795 53.1346 22.9223 53.1346 19.3652 53.1346 16.0209 51.7494 13.5057 49.2341 10.9905 46.7188 9.60516 43.3746 9.60516 39.8174 9.60516 36.2603 10.9903 32.9159 13.5057 30.4007 16.0209 27.8855 19.3652 26.5002 22.9223 26.5002 26.4795 26.5002 29.8237 27.8853 32.3389 30.4007 36.8703 34.932 44.2434 34.9322 48.7747 30.4007 53.3061 25.8694 53.3061 18.4962 48.7747 13.9648 44.2435 9.43344 36.8703 9.43332 32.3389 13.9648 30.1193 16.1844 28.9186 19.126 28.9328 22.2102L29.1484 21.9783C29.4671 21.6353 30.0034 21.6157 30.3463 21.9344 30.6893 22.2532 30.7089 22.7895 30.3902 23.1324L28.6079 25.0503C28.4369 25.2344 28.1927 25.3339 27.942 25.3197 27.6911 25.3064 27.459 25.1824 27.3085 24.9813L25.7574 22.9094C25.4768 22.5346 25.5532 22.0035 25.928 21.7229 26.3027 21.4423 26.8339 21.5186 27.1145 21.8935L27.2374 22.0577C27.2618 18.581 28.6342 15.2722 31.1401 12.7663 36.3324 7.57405 44.781 7.57393 49.9735 12.7663 55.1657 17.9587 55.1657 26.4073 49.9735 31.5995 44.7812 36.7918 36.3326 36.792 31.1401 31.5995 28.945 29.4045 26.0264 28.1957 22.9222 28.1957 19.818 28.1957 16.8994 29.4045 14.7043 31.5995 12.5092 33.7947 11.3002 36.7132 11.3002 39.8176 11.3002 42.9219 12.5091 45.8403 14.7043 48.0355 16.8994 50.2305 19.8178 51.4393 22.9222 51.4393 26.0266 51.4393 28.945 50.2305 31.1401 48.0355 33.3598 45.8158 34.5604 42.8742 34.5462 39.7898L34.3307 40.0217C34.012 40.3649 33.4756 40.3842 33.1327 40.0657 32.7898 39.747 32.7701 39.2105 33.0889 38.8676L34.8711 36.9498C35.0421 36.7658 35.2862 36.6684 35.537 36.6804 35.7879 36.6937 36.0201 36.8177 36.1706 37.0188L37.7218 39.0906ZM60.0238 45.4949C60.2095 45.9246 60.0118 46.4235 59.5821 46.6092L55.9003 48.201C55.7925 48.2476 55.6781 48.2706 55.564 48.2706 55.4084 48.2706 55.2535 48.2278 55.1174 48.1434 54.8816 47.9972 54.7322 47.745 54.7175 47.4679L54.5081 43.5194C54.4832 43.052 54.8422 42.6529 55.3097 42.628 55.776 42.6026 56.1762 42.9621 56.2009 43.4296L56.2674 44.6827C58.5973 40.5151 59.8204 35.8237 59.8204 31.0002 59.8204 15.5165 47.2235 2.91945 31.7396 2.91945 29.1164 2.91945 26.5195 3.28067 24.0211 3.99331 23.5704 4.12191 23.1019 3.86083 22.9735 3.41061 22.8451 2.96038 23.106 2.49138 23.5562 2.36302 26.2059 1.60728 28.9592 1.22414 31.7398 1.22414 39.6932 1.22414 47.1706 4.32147 52.7946 9.94543 58.4185 15.5694 61.5159 23.0468 61.5159 31.0002 61.5159 36.1381 60.2066 41.1352 57.7135 45.5705L58.9097 45.0533C59.3396 44.8673 59.8382 45.0653 60.0241 45.4949ZM35.9974 59.6301C36.052 60.0951 35.7195 60.5161 35.2545 60.571 34.0961 60.7072 32.9134 60.7762 31.7395 60.7762 23.7861 60.7762 16.3087 57.679 10.6847 52.0549 5.06075 46.4309 1.96354 38.9534 1.96354 31 1.96354 28.5067 2.27063 26.0419 2.87767 23.6505L1.8583 24.4578C1.49127 24.7484 0.958215 24.6867 0.66759 24.3196 0.376965 23.9526 0.438844 23.4195 0.805758 23.1289L3.9502 20.6384C4.16756 20.4661 4.45577 20.411 4.72132 20.4914 4.987 20.5715 5.1965 20.7765 5.28247 21.0404L6.50673 24.8002C6.65168 25.2454 6.4084 25.7237 5.96326 25.8687 5.51824 26.0134 5.0398 25.7703 4.89485 25.3252L4.50541 24.1291C3.94305 26.3653 3.65885 28.6692 3.65885 31.0001 3.65885 46.4839 16.2557 59.0809 31.7396 59.0809 32.8476 59.0809 33.9636 59.0158 35.0568 58.8872 35.522 58.8332 35.9429 59.1651 35.9977 59.6301ZM53.7186 52.7052C52.8348 51.893 51.8095 51.2773 50.7041 50.8768 51.7196 50.01 52.3652 48.7221 52.3652 47.2855 52.3652 44.6819 50.2469 42.5636 47.6431 42.5636 45.0394 42.5636 42.9211 44.6819 42.9211 47.2855 42.9211 48.7221 43.5667 50.01 44.5821 50.8768 43.4768 51.2773 42.4514 51.893 41.5675 52.7052 39.9171 54.2217 38.8977 56.2818 38.6973 58.5062 38.695 58.5315 38.6939 58.5568 38.6939 58.5822L38.6939 59.9285C38.6939 60.3966 39.0734 60.7761 39.5416 60.7761L55.7444 60.7761C56.2126 60.7761 56.5921 60.3966 56.5921 59.9285L56.5921 58.5822C56.5921 58.5568 56.5909 58.5315 56.5887 58.5062 56.3883 56.2818 55.369 54.2217 53.7185 52.7052ZM47.6431 44.2589C49.312 44.2589 50.6699 45.6166 50.6699 47.2855 50.6699 48.9545 49.312 50.3123 47.6431 50.3123 45.9742 50.3123 44.6164 48.9545 44.6164 47.2855 44.6164 45.6166 45.9741 44.2589 47.6431 44.2589ZM54.8969 59.0808 40.3894 59.0808 40.3894 58.6214C40.7463 54.863 43.8583 52.0339 47.6431 52.0339 51.4279 52.0339 54.5399 54.863 54.8969 58.6214ZM7.73462 19.4365 23.9376 19.4365C24.4057 19.4365 24.7852 19.057 24.7852 18.5889L24.7852 17.2425C24.7852 17.2172 24.784 17.1918 24.7818 17.1665 24.5814 14.9421 23.5622 12.882 21.9117 11.3654 21.0278 10.5533 20.0025 9.93756 18.8972 9.5371 19.9125 8.67031 20.5582 7.38248 20.5582 5.94595 20.5582 3.34219 18.4399 1.22389 15.8362 1.22389 13.2324 1.22389 11.1141 3.34219 11.1141 5.94595 11.1141 7.38248 11.7598 8.67031 12.7751 9.5371 11.6698 9.93756 10.6444 10.5533 9.76064 11.3654 8.11025 12.882 7.09089 14.9421 6.89048 17.1665 6.88818 17.1917 6.88709 17.2171 6.88709 17.2425L6.88709 18.5889C6.88709 19.057 7.26659 19.4365 7.73474 19.4365ZM15.836 2.91921C17.5049 2.91921 18.8628 4.27703 18.8628 5.94595 18.8628 7.61486 17.5051 8.97268 15.836 8.97268 14.167 8.97268 12.8093 7.61498 12.8093 5.94595 12.8093 4.27691 14.1671 2.91921 15.836 2.91921ZM8.58216 17.2817C8.93914 13.5233 12.0511 10.6942 15.8359 10.6942 19.6207 10.6942 22.7328 13.5234 23.0898 17.2817L23.0898 17.7411 8.58216 17.7411Z" fill="#FFFFFF" fill-rule="nonzero" fill-opacity="1" transform="matrix(-1 0 0 1 425 280)"/></g></g></g></g></g></svg>