<svg width="48" height="48" xmlns="http://www.w3.org/2000/svg" xmlns:xlink="http://www.w3.org/1999/xlink" xml:space="preserve" overflow="hidden"><g transform="translate(-760 -544)"><g><path d="M775.978 565.506C775.614 568.315 773.042 570.298 770.232 569.934 770.195 569.929 770.159 569.924 770.122 569.919 768.407 569.686 766.67 570.144 765.292 571.192 764.966 571.448 764.91 571.92 765.167 572.246 765.416 572.562 765.869 572.625 766.195 572.391 769.395 570.1 771.472 572.804 774.883 570.145 776.27 569.109 777.189 567.565 777.439 565.853 777.799 563.045 780.368 561.062 783.175 561.422 783.215 561.427 783.256 561.433 783.296 561.439 786.861 561.9 790.142 559.428 790.682 555.873 791.044 553.065 793.615 551.081 796.423 551.444 796.462 551.449 796.501 551.454 796.539 551.46 798.43 551.7 800.334 551.117 801.767 549.86L801.767 550.849C801.767 551.263 802.103 551.599 802.517 551.599 802.932 551.599 803.268 551.263 803.268 550.849L803.268 547.795C803.268 547.38 802.932 547.044 802.518 547.044 802.518 547.044 802.518 547.044 802.517 547.044L799.463 547.044C799.049 547.052 798.719 547.394 798.727 547.808 798.734 548.212 799.059 548.538 799.463 548.545L800.982 548.545C797.904 551.517 795.27 548.48 791.776 551.235 788.28 553.779 790.307 556.523 787.224 558.966 786.124 559.802 784.73 560.153 783.365 559.94 779.8 559.48 776.52 561.952 775.978 565.506Z" fill="#FFFFFF" fill-rule="nonzero" fill-opacity="1"/><path d="M804.265 587.455 803.137 587.455 803.137 558.332C803.138 557.917 802.802 557.581 802.388 557.581 802.387 557.581 802.387 557.581 802.387 557.581L795.748 557.581C795.334 557.581 794.998 557.917 794.998 558.331 794.998 558.331 794.998 558.331 794.998 558.332L794.998 587.455 793.18 587.455 793.18 564.97C793.18 564.556 792.844 564.22 792.43 564.22 792.43 564.22 792.429 564.22 792.429 564.22L785.79 564.22C785.376 564.219 785.04 564.555 785.04 564.969 785.04 564.97 785.04 564.97 785.04 564.97L785.04 587.455 783.222 587.455 783.222 571.609C783.222 571.194 782.886 570.858 782.472 570.858 782.472 570.858 782.471 570.858 782.471 570.858L775.833 570.858C775.418 570.858 775.082 571.194 775.082 571.608 775.082 571.608 775.082 571.608 775.082 571.609L775.082 587.455 773.264 587.455 773.264 578.247C773.264 577.833 772.928 577.497 772.514 577.497 772.514 577.497 772.514 577.497 772.513 577.497L765.875 577.497C765.46 577.497 765.124 577.832 765.124 578.246 765.124 578.247 765.124 578.247 765.124 578.247L765.124 587.455 763.738 587.455C763.324 587.462 762.993 587.803 763 588.218 763.007 588.622 763.333 588.949 763.738 588.956 776.891 588.954 791.106 588.956 804.265 588.956 804.679 588.947 805.008 588.604 805 588.19 804.991 587.787 804.667 587.463 804.265 587.455ZM771.763 587.455 766.625 587.455 766.625 578.998 771.763 578.998ZM781.721 587.455 776.583 587.455 776.583 572.359 781.721 572.359ZM791.679 587.455 786.541 587.455 786.541 565.721 791.679 565.721ZM801.636 587.455 796.499 587.455 796.499 559.082 801.636 559.082Z" fill="#FFFFFF" fill-rule="nonzero" fill-opacity="1"/><path d="M768.17 555.675 770.868 555.675 770.868 558.373C770.868 558.787 771.204 559.123 771.618 559.123 772.033 559.123 772.369 558.787 772.369 558.373L772.369 555.675 775.067 555.675C775.481 555.675 775.817 555.339 775.817 554.924 775.817 554.51 775.481 554.174 775.067 554.174L772.369 554.174 772.369 551.477C772.369 551.062 772.033 550.726 771.618 550.726 771.204 550.726 770.868 551.062 770.868 551.477L770.868 554.174 768.17 554.174C767.756 554.182 767.426 554.525 767.434 554.939 767.442 555.342 767.767 555.667 768.17 555.675Z" fill="#FFFFFF" fill-rule="nonzero" fill-opacity="1"/><path d="M771.618 562.804C775.968 562.8 779.494 559.274 779.498 554.924 779.066 544.47 764.169 544.473 763.738 554.924 763.743 559.274 767.268 562.8 771.618 562.804ZM771.618 548.545C775.14 548.549 777.993 551.403 777.997 554.924 777.677 563.375 765.559 563.373 765.239 554.924 765.243 551.403 768.097 548.549 771.618 548.545Z" fill="#FFFFFF" fill-rule="nonzero" fill-opacity="1"/></g></g></svg>