<svg width="48" height="49" xmlns="http://www.w3.org/2000/svg" xmlns:xlink="http://www.w3.org/1999/xlink" xml:space="preserve" overflow="hidden"><g transform="translate(-616 -289)"><g><g><g><g><path d="M660.8 299.6C659.035 299.6 657.6 301.035 657.6 302.8 657.6 304.565 659.035 306 660.8 306 662.565 306 664 304.565 664 302.8 664 301.035 662.565 299.6 660.8 299.6ZM660.8 304.4C659.918 304.4 659.2 303.682 659.2 302.8 659.2 301.918 659.918 301.2 660.8 301.2 661.682 301.2 662.4 301.918 662.4 302.8 662.4 303.682 661.682 304.4 660.8 304.4Z" fill="#FFFFFF" fill-rule="nonzero" fill-opacity="1"/><path d="M619.2 326C617.435 326 616 327.435 616 329.2 616 330.965 617.435 332.4 619.2 332.4 620.965 332.4 622.4 330.965 622.4 329.2 622.4 327.435 620.965 326 619.2 326ZM619.2 330.8C618.318 330.8 617.6 330.082 617.6 329.2 617.6 328.318 618.318 327.6 619.2 327.6 620.082 327.6 620.8 328.318 620.8 329.2 620.8 330.082 620.082 330.8 619.2 330.8Z" fill="#FFFFFF" fill-rule="nonzero" fill-opacity="1"/><path d="M659.249 300.611 652.347 297.279C651.949 297.086 651.471 297.254 651.279 297.652 651.087 298.05 651.254 298.528 651.652 298.72L658.554 302.052C658.666 302.106 658.784 302.132 658.901 302.132 659.198 302.132 659.484 301.966 659.622 301.679 659.814 301.282 659.646 300.803 659.249 300.611Z" fill="#FFFFFF" fill-rule="nonzero" fill-opacity="1"/><path d="M652 331.6C650.235 331.6 648.8 333.035 648.8 334.8 648.8 336.565 650.235 338 652 338 653.765 338 655.2 336.565 655.2 334.8 655.2 333.035 653.765 331.6 652 331.6ZM652 336.4C651.118 336.4 650.4 335.682 650.4 334.8 650.4 333.917 651.118 333.2 652 333.2 652.882 333.2 653.6 333.918 653.6 334.8 653.6 335.682 652.882 336.4 652 336.4Z" fill="#FFFFFF" fill-rule="nonzero" fill-opacity="1"/><path d="M650.449 332.611 643.547 329.279C643.149 329.086 642.671 329.254 642.479 329.652 642.287 330.05 642.454 330.528 642.852 330.72L649.754 334.052C649.866 334.106 649.984 334.132 650.101 334.132 650.398 334.132 650.684 333.966 650.822 333.679 651.014 333.282 650.846 332.803 650.449 332.611Z" fill="#FFFFFF" fill-rule="nonzero" fill-opacity="1"/><path d="M640 311.6C638.235 311.6 636.8 313.035 636.8 314.8 636.8 316.565 638.235 318 640 318 641.765 318 643.2 316.565 643.2 314.8 643.2 313.035 641.765 311.6 640 311.6ZM640 316.4C639.118 316.4 638.4 315.682 638.4 314.8 638.4 313.918 639.118 313.2 640 313.2 640.882 313.2 641.6 313.918 641.6 314.8 641.6 315.682 640.882 316.4 640 316.4Z" fill="#FFFFFF" fill-rule="nonzero" fill-opacity="1"/><path d="M638.594 312.701 633.292 308.569C632.943 308.299 632.441 308.359 632.169 308.708 631.898 309.057 631.959 309.559 632.308 309.831L637.61 313.963C637.756 314.077 637.929 314.132 638.101 314.132 638.339 314.132 638.574 314.027 638.733 313.824 639.004 313.475 638.942 312.973 638.594 312.701Z" fill="#FFFFFF" fill-rule="nonzero" fill-opacity="1"/><path d="M654.4 310.8C649.548 310.8 645.6 314.748 645.6 319.6 645.6 324.452 649.548 328.4 654.4 328.4 659.252 328.4 663.2 324.452 663.2 319.6 663.2 314.748 659.252 310.8 654.4 310.8ZM654.4 326.8C650.43 326.8 647.2 323.57 647.2 319.6 647.2 315.63 650.43 312.4 654.4 312.4 658.37 312.4 661.6 315.63 661.6 319.6 661.6 323.57 658.37 326.8 654.4 326.8Z" fill="#FFFFFF" fill-rule="nonzero" fill-opacity="1"/><path d="M654.4 314C652.635 314 651.2 315.435 651.2 317.2 651.2 318.965 652.635 320.4 654.4 320.4 656.165 320.4 657.6 318.965 657.6 317.2 657.6 315.435 656.165 314 654.4 314ZM654.4 318.8C653.518 318.8 652.8 318.082 652.8 317.2 652.8 316.318 653.518 315.6 654.4 315.6 655.282 315.6 656 316.318 656 317.2 656 318.082 655.282 318.8 654.4 318.8Z" fill="#FFFFFF" fill-rule="nonzero" fill-opacity="1"/><path d="M656.721 322 652.079 322C650.712 322 649.6 323.082 649.6 324.412L649.6 326.521C649.6 326.806 649.752 327.07 649.999 327.214 651.34 327.99 652.862 328.4 654.4 328.4 655.938 328.4 657.46 327.99 658.801 327.214 659.048 327.071 659.2 326.806 659.2 326.522L659.2 324.413C659.2 323.082 658.088 322 656.721 322ZM657.6 326.044C655.609 327.036 653.191 327.036 651.2 326.044L651.2 324.413C651.2 323.965 651.594 323.6 652.079 323.6L656.721 323.6C657.205 323.6 657.6 323.965 657.6 324.413L657.6 326.044Z" fill="#FFFFFF" fill-rule="nonzero" fill-opacity="1"/><path d="M635.2 320.4C630.348 320.4 626.4 324.348 626.4 329.2 626.4 334.052 630.348 338 635.2 338 640.052 338 644 334.052 644 329.2 644 324.348 640.052 320.4 635.2 320.4ZM635.2 336.4C631.23 336.4 628 333.17 628 329.2 628 325.23 631.23 322 635.2 322 639.17 322 642.4 325.23 642.4 329.2 642.4 333.17 639.17 336.4 635.2 336.4Z" fill="#FFFFFF" fill-rule="nonzero" fill-opacity="1"/><path d="M635.2 323.6C633.435 323.6 632 325.035 632 326.8 632 328.565 633.435 330 635.2 330 636.965 330 638.4 328.565 638.4 326.8 638.4 325.035 636.965 323.6 635.2 323.6ZM635.2 328.4C634.318 328.4 633.6 327.682 633.6 326.8 633.6 325.918 634.318 325.2 635.2 325.2 636.082 325.2 636.8 325.918 636.8 326.8 636.8 327.682 636.082 328.4 635.2 328.4Z" fill="#FFFFFF" fill-rule="nonzero" fill-opacity="1"/><path d="M637.521 331.6 632.879 331.6C631.512 331.6 630.4 332.682 630.4 334.012L630.4 336.121C630.4 336.406 630.552 336.67 630.799 336.814 632.14 337.59 633.662 338 635.2 338 636.738 338 638.26 337.59 639.601 336.814 639.848 336.671 640 336.406 640 336.122L640 334.013C640 332.682 638.888 331.6 637.521 331.6ZM638.4 335.644C636.409 336.636 633.991 336.636 632 335.644L632 334.013C632 333.565 632.394 333.2 632.879 333.2L637.521 333.2C638.005 333.2 638.4 333.565 638.4 334.013L638.4 335.644Z" fill="#FFFFFF" fill-rule="nonzero" fill-opacity="1"/><path d="M624.8 300.4C619.948 300.4 616 304.348 616 309.2 616 314.052 619.948 318 624.8 318 629.652 318 633.6 314.052 633.6 309.2 633.6 304.348 629.652 300.4 624.8 300.4ZM624.8 316.4C620.83 316.4 617.6 313.17 617.6 309.2 617.6 305.23 620.83 302 624.8 302 628.77 302 632 305.23 632 309.2 632 313.17 628.77 316.4 624.8 316.4Z" fill="#FFFFFF" fill-rule="nonzero" fill-opacity="1"/><path d="M624.8 303.6C623.035 303.6 621.6 305.035 621.6 306.8 621.6 308.565 623.035 310 624.8 310 626.565 310 628 308.565 628 306.8 628 305.035 626.565 303.6 624.8 303.6ZM624.8 308.4C623.918 308.4 623.2 307.682 623.2 306.8 623.2 305.918 623.918 305.2 624.8 305.2 625.682 305.2 626.4 305.918 626.4 306.8 626.4 307.682 625.682 308.4 624.8 308.4Z" fill="#FFFFFF" fill-rule="nonzero" fill-opacity="1"/><path d="M627.121 311.6 622.479 311.6C621.112 311.6 620 312.682 620 314.012L620 316.121C620 316.406 620.152 316.67 620.399 316.814 621.74 317.59 623.262 318 624.8 318 626.338 318 627.86 317.59 629.201 316.814 629.448 316.671 629.6 316.406 629.6 316.122L629.6 314.013C629.6 312.682 628.488 311.6 627.121 311.6ZM628 315.644C626.009 316.636 623.591 316.636 621.6 315.644L621.6 314.013C621.6 313.565 621.994 313.2 622.479 313.2L627.121 313.2C627.606 313.2 628 313.565 628 314.013L628 315.644Z" fill="#FFFFFF" fill-rule="nonzero" fill-opacity="1"/><path d="M644 290C639.148 290 635.2 293.948 635.2 298.8 635.2 303.652 639.148 307.6 644 307.6 648.852 307.6 652.8 303.652 652.8 298.8 652.8 293.948 648.852 290 644 290ZM644 306C640.03 306 636.8 302.77 636.8 298.8 636.8 294.83 640.03 291.6 644 291.6 647.97 291.6 651.2 294.83 651.2 298.8 651.2 302.77 647.97 306 644 306Z" fill="#FFFFFF" fill-rule="nonzero" fill-opacity="1"/><path d="M644 293.2C642.235 293.2 640.8 294.635 640.8 296.4 640.8 298.165 642.235 299.6 644 299.6 645.765 299.6 647.2 298.165 647.2 296.4 647.2 294.635 645.765 293.2 644 293.2ZM644 298C643.118 298 642.4 297.282 642.4 296.4 642.4 295.518 643.118 294.8 644 294.8 644.883 294.8 645.6 295.517 645.6 296.4 645.6 297.282 644.882 298 644 298Z" fill="#FFFFFF" fill-rule="nonzero" fill-opacity="1"/><path d="M646.321 301.2 641.679 301.2C640.312 301.2 639.2 302.282 639.2 303.612L639.2 305.721C639.2 306.006 639.352 306.27 639.599 306.414 640.94 307.19 642.462 307.6 644 307.6 645.538 307.6 647.06 307.19 648.401 306.414 648.648 306.271 648.8 306.006 648.8 305.722L648.8 303.613C648.8 302.282 647.688 301.2 646.321 301.2ZM647.2 305.244C645.209 306.236 642.791 306.236 640.8 305.244L640.8 303.613C640.8 303.165 641.194 302.8 641.679 302.8L646.321 302.8C646.805 302.8 647.2 303.165 647.2 303.613L647.2 305.244Z" fill="#FFFFFF" fill-rule="nonzero" fill-opacity="1"/><path d="M636.609 298.279C636.322 297.945 635.817 297.905 635.481 298.192L629.937 302.936C629.601 303.223 629.562 303.728 629.849 304.064 630.007 304.249 630.231 304.344 630.457 304.344 630.641 304.344 630.826 304.281 630.977 304.151L636.521 299.407C636.857 299.12 636.896 298.615 636.609 298.279Z" fill="#FFFFFF" fill-rule="nonzero" fill-opacity="1"/><path d="M654.24 311.121 649.44 304.721C649.175 304.366 648.674 304.297 648.32 304.561 647.966 304.826 647.895 305.327 648.16 305.68L652.96 312.08C653.117 312.29 653.357 312.4 653.601 312.4 653.767 312.4 653.936 312.348 654.08 312.24 654.434 311.975 654.505 311.474 654.24 311.121Z" fill="#FFFFFF" fill-rule="nonzero" fill-opacity="1"/><path d="M647.674 322.246C647.41 321.892 646.908 321.821 646.554 322.086L642.086 325.437C641.732 325.702 641.661 326.203 641.926 326.556 642.083 326.766 642.323 326.876 642.566 326.876 642.733 326.876 642.901 326.823 643.046 326.716L647.514 323.365C647.868 323.1 647.939 322.598 647.674 322.246Z" fill="#FFFFFF" fill-rule="nonzero" fill-opacity="1"/><path d="M627.2 328.4 621.6 328.4C621.158 328.4 620.8 328.758 620.8 329.2 620.8 329.642 621.158 330 621.6 330L627.2 330C627.641 330 628 329.642 628 329.2 628 328.758 627.642 328.4 627.2 328.4Z" fill="#FFFFFF" fill-rule="nonzero" fill-opacity="1"/><path d="M624.8 290C623.035 290 621.6 291.435 621.6 293.2 621.6 294.965 623.035 296.4 624.8 296.4 626.565 296.4 628 294.965 628 293.2 628 291.435 626.565 290 624.8 290ZM624.8 294.8C623.918 294.8 623.2 294.082 623.2 293.2 623.2 292.318 623.918 291.6 624.8 291.6 625.682 291.6 626.4 292.318 626.4 293.2 626.4 294.082 625.682 294.8 624.8 294.8Z" fill="#FFFFFF" fill-rule="nonzero" fill-opacity="1"/><path d="M624.8 294.8C624.358 294.8 624 295.158 624 295.6L624 301.2C624 301.642 624.358 302 624.8 302 625.242 302 625.6 301.642 625.6 301.2L625.6 295.6C625.6 295.158 625.242 294.8 624.8 294.8Z" fill="#FFFFFF" fill-rule="nonzero" fill-opacity="1"/></g></g></g></g></g></svg>