<svg width="49" height="49" xmlns="http://www.w3.org/2000/svg" xmlns:xlink="http://www.w3.org/1999/xlink" xml:space="preserve" overflow="hidden"><g transform="translate(-468 -540)"><g><g><g><g><path d="M480.276 575.025C479.91 575.025 479.657 574.659 479.742 574.322L482.525 563.186C482.554 563.13 484.634 557.703 490.062 559.221 490.764 559.418 490.483 560.515 489.752 560.318 485.45 559.109 483.763 563.13 483.594 563.552L480.838 574.603C480.782 574.856 480.529 575.025 480.276 575.025Z" fill="#FFFFFF" fill-rule="evenodd" fill-opacity="1"/><path d="M505.696 575.025C505.443 575.025 505.218 574.856 505.162 574.603L502.378 563.552C502.237 563.158 500.55 559.165 496.332 560.29 495.601 560.459 495.32 559.39 496.051 559.193 501.394 557.787 503.418 563.13 503.446 563.186L506.258 574.322C506.315 574.659 506.09 575.025 505.696 575.025Z" fill="#FFFFFF" fill-rule="evenodd" fill-opacity="1"/><path d="M493.07 559.278 493.042 559.278C489.921 559.053 487.531 554.216 487.418 552.107 486.996 551.376 485.337 548.199 486.406 546.427 486.603 545.949 488.824 541.394 493.042 541L493.127 541C497.316 541.394 499.538 545.949 499.763 546.427 500.803 548.199 499.144 551.376 498.722 552.107 498.61 554.216 496.22 559.053 493.127 559.278 493.098 559.278 493.098 559.278 493.07 559.278ZM493.07 542.125C489.415 542.49 487.418 546.933 487.362 546.989 486.518 548.424 488.543 551.573 488.543 551.967 488.543 553.598 490.708 557.956 493.07 558.153 495.46 557.956 497.626 553.598 497.626 551.967 497.626 551.489 499.65 548.648 498.75 546.905 498.722 546.877 496.698 542.49 493.07 542.125Z" fill="#FFFFFF" fill-rule="evenodd" fill-opacity="1"/><path d="M487.981 552.529C487.587 552.529 487.25 552.135 487.503 551.657 488.374 549.914 488.852 548.452 488.74 547.805 488.656 547.271 489.33 546.933 489.696 547.299 489.752 547.355 490.905 548.48 493.07 548.508 493.801 548.508 493.801 549.661 493.07 549.633 491.608 549.605 490.511 549.155 489.808 548.761 489.583 549.942 489.021 551.095 488.487 552.22 488.374 552.417 488.177 552.529 487.981 552.529Z" fill="#FFFFFF" fill-rule="evenodd" fill-opacity="1"/><path d="M498.16 552.529C497.907 552.529 497.766 552.388 497.654 552.163 497.12 551.123 496.557 549.83 496.332 548.761 495.685 549.127 494.476 549.633 493.07 549.633 492.339 549.633 492.339 548.536 493.07 548.508 496.079 548.452 496.332 546.821 497.091 547.214 497.794 547.58 496.726 548.002 498.666 551.714 498.863 552.079 498.582 552.529 498.16 552.529Z" fill="#FFFFFF" fill-rule="evenodd" fill-opacity="1"/><path d="M493.07 564.705C492.902 564.705 492.733 564.62 492.62 564.48L489.499 560.318C489.274 560.009 489.387 557.197 489.387 556.634 489.387 555.903 490.511 555.903 490.511 556.634L490.511 559.784 493.52 563.805C493.801 564.17 493.52 564.705 493.07 564.705Z" fill="#FFFFFF" fill-rule="evenodd" fill-opacity="1"/><path d="M493.07 564.705C492.62 564.705 492.339 564.17 492.62 563.805L495.629 559.812 495.629 556.634C495.629 555.903 496.754 555.903 496.754 556.634 496.754 557.197 496.866 560.009 496.641 560.318L493.52 564.48C493.408 564.62 493.239 564.705 493.07 564.705Z" fill="#FFFFFF" fill-rule="evenodd" fill-opacity="1"/><path d="M493.07 571.594C492.564 571.594 492.339 570.975 492.677 570.638L496.248 567.067 496.248 563.889C496.248 563.692 496.332 563.496 496.529 563.411L498.216 562.427 498.216 559.615C498.216 558.884 499.341 558.884 499.341 559.615L499.341 562.736C499.341 562.961 499.228 563.13 499.06 563.243L497.373 564.227 497.373 567.32C497.373 567.46 497.288 567.601 497.204 567.714L493.464 571.425C493.352 571.538 493.211 571.594 493.07 571.594Z" fill="#FFFFFF" fill-rule="evenodd" fill-opacity="1"/><path d="M493.07 575.025C492.761 575.025 492.508 574.772 492.508 574.462L492.508 564.142C492.508 563.411 493.633 563.411 493.633 564.142L493.633 574.462C493.633 574.772 493.38 575.025 493.07 575.025Z" fill="#FFFFFF" fill-rule="evenodd" fill-opacity="1"/><path d="M493.07 571.594C492.93 571.594 492.789 571.538 492.677 571.425L488.965 567.714C488.852 567.601 488.796 567.46 488.796 567.32L488.796 564.227 487.109 563.243C486.912 563.13 486.828 562.961 486.828 562.765L486.828 559.615C486.828 558.884 487.953 558.884 487.953 559.615L487.953 562.427 489.64 563.411C489.808 563.496 489.921 563.692 489.921 563.889L489.921 567.067 493.464 570.638C493.83 570.975 493.576 571.594 493.07 571.594Z" fill="#FFFFFF" fill-rule="evenodd" fill-opacity="1"/><path d="M513.907 579.833 472.093 579.833C471.221 579.833 470.49 579.13 470.49 578.258L470.49 575.474C470.49 574.603 471.221 573.9 472.093 573.9L513.907 573.9C514.779 573.9 515.482 574.603 515.482 575.474L515.482 578.258C515.482 579.13 514.779 579.833 513.907 579.833ZM472.093 575.025C471.84 575.025 471.615 575.221 471.615 575.474L471.615 578.258C471.615 578.511 471.84 578.708 472.093 578.708L513.907 578.708C514.16 578.708 514.357 578.511 514.357 578.258L514.357 575.474C514.357 575.221 514.16 575.025 513.907 575.025Z" fill="#FFFFFF" fill-rule="evenodd" fill-opacity="1"/><path d="M512.248 588.972 473.893 588.972C473.583 588.972 473.33 588.719 473.33 588.409L473.33 579.271C473.33 578.54 474.455 578.54 474.455 579.271L474.455 587.847 511.685 587.847 511.685 579.271C511.685 578.54 512.81 578.54 512.81 579.271L512.81 588.409C512.81 588.719 512.557 588.972 512.248 588.972Z" fill="#FFFFFF" fill-rule="evenodd" fill-opacity="1"/><path d="M480.22 575.025C479.995 575.025 479.77 574.884 479.685 574.659 478.504 571.622 473.443 555.903 484.634 554.188L488.796 554.188C489.527 554.188 489.527 555.313 488.796 555.313L484.747 555.313C482.525 555.622 480.866 556.634 479.882 558.322 476.705 563.692 480.698 574.153 480.754 574.265 480.895 574.631 480.613 575.025 480.22 575.025ZM505.78 575.025C505.387 575.025 505.105 574.631 505.246 574.265 505.302 574.153 509.267 563.692 506.118 558.322 505.105 556.634 503.475 555.622 501.253 555.313L497.344 555.313C496.613 555.313 496.613 554.188 497.344 554.188L501.366 554.188C512.529 555.763 507.467 571.763 506.286 574.659 506.202 574.884 506.005 575.025 505.78 575.025Z" fill="#FFFFFF" fill-rule="evenodd" fill-opacity="1"/><path d="M505.893 583.995 480.248 583.995C479.517 583.995 479.517 582.87 480.248 582.87L505.893 582.87C506.624 582.87 506.652 583.995 505.893 583.995Z" fill="#FFFFFF" fill-rule="evenodd" fill-opacity="1"/></g></g></g></g></g></svg>