<svg width="63" height="62" xmlns="http://www.w3.org/2000/svg" xmlns:xlink="http://www.w3.org/1999/xlink" xml:space="preserve" overflow="hidden"><g transform="translate(-610 -280)"><g><g><g><g><path d="M58.8223 17.2467C58.6714 16.94 58.3983 16.7113 58.0701 16.6168 57.742 16.5226 57.3892 16.5713 57.099 16.7513L34.9432 30.4795C34.5875 30.6998 34.3706 31.0884 34.3693 31.5071 34.368 31.926 34.5826 32.3159 34.9368 32.5385L56.5829 46.1382C56.7775 46.2604 57.0008 46.3236 57.2264 46.3236 57.3295 46.3236 57.4332 46.3102 57.5348 46.2835 57.8586 46.1981 58.1326 45.9822 58.2916 45.6871 60.7177 41.1891 62 36.0934 62 30.951 62 26.1441 60.9309 21.5334 58.8223 17.2467ZM56.7497 43.3795 37.8705 31.5182 57.2128 19.5331C58.7831 23.1354 59.5781 26.9699 59.5781 30.951 59.5781 35.257 58.6033 39.5268 56.7497 43.3795Z" fill="#FFFFFF" fill-rule="nonzero" fill-opacity="1" transform="matrix(-1 0 0 1 673 280)"/><path d="M32.8324 28.2032C33.0158 28.3057 33.2189 28.3566 33.4218 28.3566 33.6431 28.3566 33.864 28.296 34.0589 28.1752L55.8863 14.6503C56.1714 14.4737 56.3706 14.1867 56.4365 13.8575 56.5023 13.5284 56.4292 13.1865 56.2342 12.9134 50.9024 5.44304 42.6229 0.737703 33.519 0.00399609 33.181-0.0231289 32.8491 0.0921523 32.6006 0.321504 32.3523 0.551219 32.2109 0.874297 32.2109 1.213L32.2109 27.1438C32.2109 27.5836 32.4488 27.9891 32.8324 28.2032ZM34.6328 2.55762C42.0795 3.50421 48.8343 7.34688 53.4867 13.2847L34.6328 24.9672Z" fill="#FFFFFF" fill-rule="nonzero" fill-opacity="1" transform="matrix(-1 0 0 1 673 280)"/><path d="M46.6118 57.0745C46.6118 57.7444 46.0696 58.2874 45.4008 58.2874 44.732 58.2874 44.1899 57.7444 44.1899 57.0745 44.1899 56.4047 44.732 55.8616 45.4008 55.8616 46.0696 55.8616 46.6118 56.4047 46.6118 57.0745Z" fill="#FFFFFF" fill-rule="nonzero" fill-opacity="1" transform="matrix(-1 0 0 1 673 280)"/><path d="M55.2272 48.1501 32.7958 34.0568C32.4955 33.8675 32.1201 33.8203 31.7811 33.9294 31.4408 34.0398 31.1671 34.2933 31.0315 34.6255L21.0836 59.0067C20.9541 59.3256 20.9637 59.6725 21.1103 59.9842 21.258 60.2948 21.5196 60.5228 21.8477 60.6246 24.8024 61.5367 27.8818 62 30.9976 62L31.0024 62C34.3531 62 37.6505 61.4676 40.8013 60.4161 41.4347 60.2038 41.7786 59.516 41.5679 58.8817 41.402 58.3857 40.9406 58.0521 40.4187 58.0521 40.2891 58.0521 40.1607 58.0727 40.036 58.114 37.131 59.0831 34.0915 59.5742 31 59.5742 28.5745 59.5742 26.1647 59.2698 23.8385 58.6682L32.7292 36.8778 52.7823 49.4771C51.678 50.7785 50.4501 51.9889 49.1326 53.0733 48.6167 53.499 48.5429 54.2643 48.9667 54.781 49.1968 55.0624 49.5382 55.2237 49.9027 55.2237 50.1812 55.2237 50.4549 55.1255 50.6705 54.9471 52.4748 53.4626 54.1132 51.7707 55.5421 49.9186 55.7504 49.6494 55.8363 49.3013 55.7758 48.9653 55.7164 48.6281 55.5166 48.3309 55.2272 48.1501Z" fill="#FFFFFF" fill-rule="nonzero" fill-opacity="1" transform="matrix(-1 0 0 1 673 280)"/><path d="M29.7891 31.0203 29.7891 1.213C29.7891 0.874418 29.6477 0.551219 29.3994 0.321625 29.1509 0.0920312 28.8183-0.0233711 28.481 0.00411719 20.7408 0.627871 13.5601 4.12361 8.26186 9.84734 2.9341 15.6028 0 23.0975 0 30.951 0 36.8307 1.64893 42.5544 4.76867 47.503 7.8034 52.317 12.0912 56.2038 17.1687 58.7435 17.3384 58.8284 17.5238 58.8713 17.7097 58.8713 17.8538 58.8713 17.9984 58.8455 18.1361 58.7936 18.4514 58.6748 18.7032 58.4296 18.8306 58.1173L29.699 31.4792C29.7585 31.3335 29.7891 31.1776 29.7891 31.0203ZM27.3672 30.782 17.0937 55.9621C8.00999 50.9003 2.42188 41.4339 2.42188 30.951 2.42188 16.5809 13.2756 4.35695 27.3672 2.55798Z" fill="#FFFFFF" fill-rule="nonzero" fill-opacity="1" transform="matrix(-1 0 0 1 673 280)"/></g></g></g></g></g></svg>