<svg width="62" height="62" xmlns="http://www.w3.org/2000/svg" xmlns:xlink="http://www.w3.org/1999/xlink" xml:space="preserve" overflow="hidden"><g transform="translate(-858 -280)"><g><g><g><g><path d="M30.5 15.8745 37.7431 9.83871 47.2258 9.83871 47.2258 0 23.6129 0 23.6129 9.83871 30.5 9.83871ZM25.5806 7.87097 25.5806 1.96774 45.2581 1.96774 45.2581 7.87097 37.0311 7.87097 32.4677 11.6739 32.4677 7.87097Z" fill="#FFFFFF" fill-rule="nonzero" fill-opacity="1" transform="matrix(-1 0 0 1.01639 920 280)"/><path d="M27.5484 3.93548 29.5161 3.93548 29.5161 5.90323 27.5484 5.90323Z" fill="#FFFFFF" fill-rule="nonzero" fill-opacity="1" transform="matrix(-1 0 0 1.01639 920 280)"/><path d="M31.4839 3.93548 39.3548 3.93548 39.3548 5.90323 31.4839 5.90323Z" fill="#FFFFFF" fill-rule="nonzero" fill-opacity="1" transform="matrix(-1 0 0 1.01639 920 280)"/><path d="M41.3226 3.93548 43.2903 3.93548 43.2903 5.90323 41.3226 5.90323Z" fill="#FFFFFF" fill-rule="nonzero" fill-opacity="1" transform="matrix(-1 0 0 1.01639 920 280)"/><path d="M50.0837 59.0323 49.2882 51.0676C52.5731 50.5483 55.0968 47.7038 55.0968 44.2742L55.0968 31.4839 51.1613 31.4839 51.1613 30.1243C51.1613 28.7868 50.4262 27.5859 49.2445 26.97 50.4196 25.8906 51.1613 24.347 51.1613 22.629L51.1613 20.6613C51.1613 17.4055 48.5138 14.7581 45.2581 14.7581 42.0023 14.7581 39.3548 17.4055 39.3548 20.6613L39.3548 22.629C39.3548 25.1762 40.9791 27.3447 43.2442 28.1709L37.9636 33.4516 32.4461 33.4516C32.3361 31.8115 31.2096 30.3818 29.6137 29.9254L25.5806 28.7744 25.5806 27.0171C26.785 25.9357 27.5484 24.3725 27.5484 22.629L27.5484 20.6613C27.5484 17.4055 24.9009 14.7581 21.6452 14.7581 18.3894 14.7581 15.7419 17.4055 15.7419 20.6613L15.7419 22.629C15.7419 24.3715 16.5053 25.9347 17.7097 27.0171L17.7097 28.7754 13.6767 29.9264C11.9962 30.4053 10.8226 31.9619 10.8226 33.7105L10.8226 37.3871 6.8871 37.3871 6.8871 43.2903 8.85484 43.2903 8.85484 59.0323-3.49541e-15 59.0323-3.49541e-15 61 61 61 61 59.0323ZM41.3226 43.2903 41.3226 38.7783 48.2943 31.8067C48.7982 31.3027 49.098 30.6258 49.1653 29.9196 49.1739 29.9884 49.1936 30.0532 49.1936 30.1243L49.1936 42.3065C49.1936 43.9335 47.869 45.2581 46.2419 45.2581L38.371 45.2581 38.371 43.2903ZM38.371 51.1613 43.384 51.1613 44.1709 59.0323 38.371 59.0323ZM45.3614 51.1613 47.3195 51.1613 48.1064 59.0323 46.1482 59.0323ZM51.1613 42.3065 51.1613 33.4516 53.129 33.4516 53.129 44.2742C53.129 46.9866 50.9221 49.1936 48.2097 49.1936L38.371 49.1936 38.371 47.2258 46.2419 47.2258C48.9543 47.2258 51.1613 45.0189 51.1613 42.3065ZM41.3226 22.629 41.3226 20.6613C41.3226 18.4909 43.0876 16.7258 45.2581 16.7258 47.4285 16.7258 49.1936 18.4909 49.1936 20.6613L49.1936 22.629C49.1936 24.7995 47.4285 26.5645 45.2581 26.5645 43.0876 26.5645 41.3226 24.7995 41.3226 22.629ZM38.7783 35.4194 45.3427 28.8551C45.5482 28.6495 45.8326 28.5323 46.1228 28.5323 46.731 28.5323 47.2258 29.027 47.2258 29.6353 47.2258 29.9254 47.1086 30.2099 46.903 30.4154L39.9314 37.3871 29.5161 37.3871C28.9733 37.3871 28.5323 36.9461 28.5323 36.4032 28.5323 35.8604 28.9733 35.4194 29.5161 35.4194ZM17.7097 20.6613C17.7097 18.4909 19.4747 16.7258 21.6452 16.7258 23.8156 16.7258 25.5806 18.4909 25.5806 20.6613L25.5806 22.629C25.5806 24.7995 23.8156 26.5645 21.6452 26.5645 19.4747 26.5645 17.7097 24.7995 17.7097 22.629ZM21.6452 28.5323C22.336 28.5323 22.996 28.4064 23.6129 28.1878L23.6129 29.2447C23.3689 29.6213 22.691 30.5 21.6452 30.5 20.5993 30.5 19.9214 29.6213 19.6774 29.2447L19.6774 28.1878C20.2943 28.4064 20.9544 28.5323 21.6452 28.5323ZM12.7903 33.7105C12.7903 32.8357 13.3778 32.0585 14.2172 31.8183L18.2704 30.6605C18.841 31.4042 19.9517 32.4677 21.6452 32.4677 23.3386 32.4677 24.4493 31.4042 25.02 30.6595L29.0731 31.8173C29.8269 32.033 30.3525 32.6883 30.4577 33.4506L29.5161 33.4506C27.8891 33.4506 26.5645 34.7752 26.5645 36.4022 26.5645 36.7487 26.6351 37.0772 26.7457 37.3861L12.7903 37.3861ZM8.85484 39.3548 39.3548 39.3548 39.3548 41.3226 8.85484 41.3226ZM10.8226 47.2258 13.7742 47.2258 13.7742 45.2581 10.8226 45.2581 10.8226 43.2903 36.4032 43.2903 36.4032 45.2581 15.7419 45.2581 15.7419 47.2258 36.4032 47.2258 36.4032 59.0323 34.0598 59.0323 32.092 55.0968 15.1338 55.0968 13.166 59.0323 10.8226 59.0323ZM31.8596 59.0323 15.3662 59.0323 16.3501 57.0645 30.8757 57.0645Z" fill="#FFFFFF" fill-rule="nonzero" fill-opacity="1" transform="matrix(-1 0 0 1.01639 920 280)"/></g></g></g></g></g></svg>