<svg width="63" height="62" xmlns="http://www.w3.org/2000/svg" xmlns:xlink="http://www.w3.org/1999/xlink" xml:space="preserve" overflow="hidden"><g transform="translate(-1105 -280)"><g><g><g><g><path d="M31.0182 38.1547C32.1489 38.156 33.0652 39.0723 33.0665 40.203 33.0665 40.7393 33.5013 41.1741 34.0375 41.1741 34.5738 41.1741 35.0086 40.7393 35.0086 40.203 35.0034 38.3779 33.7598 36.7893 31.9893 36.346L31.9893 34.1643C31.9893 33.628 31.5545 33.1932 31.0182 33.1932 30.4819 33.1932 30.0471 33.628 30.0471 34.1643L30.0471 36.346C27.9128 36.8781 26.614 39.0397 27.146 41.174 27.5891 42.9511 29.1868 44.1969 31.0182 44.1934 32.1494 44.1934 33.0665 45.1104 33.0665 46.2417 33.0665 47.3729 32.1494 48.2901 31.0182 48.2901 29.887 48.2901 28.9699 47.3729 28.9699 46.2417 28.9699 46.2416 28.9699 46.2416 28.9699 46.2416 28.9594 45.7053 28.5161 45.2791 27.9798 45.2895 27.4583 45.2997 27.0379 45.7202 27.0278 46.2417 27.0331 48.0669 28.2767 49.6555 30.0471 50.0986L30.0471 52.2795C30.0471 52.8158 30.4819 53.2505 31.0182 53.2505 31.5545 53.2505 31.9893 52.8158 31.9893 52.2795L31.9893 50.0986C34.1207 49.5436 35.3987 47.3659 34.8437 45.2343 34.3895 43.4895 32.821 42.2666 31.0181 42.2514 29.8868 42.2346 28.9834 41.304 29 40.1727 29.0164 39.065 29.9104 38.171 31.0182 38.1547Z" fill="#FFFFFF" fill-rule="nonzero" fill-opacity="1" transform="matrix(-1 0 0 1 1168 280)"/><path d="M31.0182 28.2423C22.7489 28.2518 16.0476 34.953 16.038 43.2223 16.8613 63.0955 45.178 63.0897 45.9984 43.2222 45.9888 34.9529 39.2876 28.2518 31.0182 28.2423ZM31.0182 56.2604C23.821 56.2521 17.9884 50.4197 17.9802 43.2224 18.6967 25.9257 43.3425 25.9307 44.0562 43.2224 44.0479 50.4197 38.2154 56.2521 31.0182 56.2603Z" fill="#FFFFFF" fill-rule="nonzero" fill-opacity="1" transform="matrix(-1 0 0 1 1168 280)"/><path d="M18.1267 26.6898C17.7388 27.8393 17.8855 30.4168 19.3868 30.6149 19.9264 30.6085 20.3586 30.1659 20.3522 29.6264 20.35 29.4453 20.2975 29.2682 20.2006 29.1151 19.8448 28.586 19.7577 27.9206 19.965 27.3177 23.5516 16.8805 38.4565 16.9014 42.0374 27.3245 42.2307 27.9169 42.1483 28.5649 41.8126 29.09 41.5176 29.5378 41.6414 30.1398 42.089 30.4351 43.9569 31.3059 44.3821 27.8381 43.8727 26.6899 42.4758 22.6663 39.2859 19.5222 35.2426 18.1834 37.4653 16.7467 38.8085 14.2815 38.8107 11.6349 38.4218 1.29376 23.5819 1.28297 23.1887 11.6349 23.1909 14.2815 24.5341 16.7466 26.7567 18.1833 22.7048 19.508 19.5096 22.6575 18.1267 26.6898ZM25.1307 11.6349C25.3776 3.87868 36.623 3.88052 36.8687 11.635 36.6221 19.3904 25.3762 19.3886 25.1307 11.6349Z" fill="#FFFFFF" fill-rule="nonzero" fill-opacity="1" transform="matrix(-1 0 0 1 1168 280)"/><path d="M57.8747 24.6018C56.8419 21.579 54.5071 19.1792 51.5139 18.0637 53.0798 16.8904 54.0025 15.0487 54.0042 13.0919 53.7141 4.84813 41.832 4.84054 41.5394 13.092 41.5412 15.0536 42.4683 16.8994 44.0406 18.0721 43.1744 18.444 41.4171 18.9027 42.0591 20.1657 42.3322 20.6272 42.9278 20.7801 43.3895 20.5071 44.7253 19.7228 46.2481 19.3137 47.7972 19.3228 51.5236 19.3311 54.8336 21.7044 56.0374 25.2309 56.2668 26.0004 55.8291 26.8101 55.0597 27.0394 54.9218 27.0805 54.7787 27.1009 54.6349 27.1L46.9931 27.1C46.4568 27.108 46.0285 27.5492 46.0365 28.0855 46.0443 28.6106 46.4681 29.0343 46.9932 29.0422L54.6349 29.0422C56.5166 29.0384 58.039 27.5099 58.0352 25.6282 58.0344 25.2798 57.9804 24.9337 57.8747 24.6018ZM43.4816 13.0919C43.5027 10.7224 45.4406 8.8187 47.81 8.83978 50.1498 8.86058 52.0413 10.7523 52.0622 13.092 52.0411 15.4614 50.1032 17.3651 47.7337 17.3441 45.394 17.3233 43.5024 15.4316 43.4816 13.0919Z" fill="#FFFFFF" fill-rule="nonzero" fill-opacity="1" transform="matrix(-1 0 0 1 1168 280)"/><path d="M14.9968 27.1 7.36456 27.1C6.56163 27.1052 5.90649 26.4586 5.90127 25.6556 5.90033 25.511 5.92097 25.367 5.96252 25.2285 7.56075 20.6533 12.5654 18.2398 17.1407 19.8381 17.6445 20.0141 18.1312 20.2356 18.5948 20.5 19.0577 20.7708 19.6525 20.6149 19.9233 20.1519 20.1941 19.6889 20.0382 19.0941 19.5752 18.8233 19.0579 18.528 18.5164 18.2772 17.9565 18.0738 19.5302 16.9011 20.4583 15.0545 20.46 13.0919 20.1691 4.84695 8.28824 4.84138 7.99522 13.092 7.99702 15.0487 8.91951 16.8904 10.4855 18.0636 7.49282 19.1786 5.15837 21.5775 4.12525 24.5994 3.55338 26.3921 4.5431 28.309 6.33586 28.881 6.66851 28.987 7.01549 29.0414 7.36466 29.0421L14.9969 29.0422C15.5332 29.032 15.9597 28.589 15.9495 28.0527 15.9396 27.5307 15.5189 27.1099 14.9968 27.1ZM9.93724 13.0919C9.95836 10.7224 11.8962 8.8187 14.2657 8.83978 16.6054 8.86058 18.4971 10.7523 18.5179 13.092 18.4968 15.4614 16.5588 17.3651 14.1894 17.3441 11.8497 17.3233 9.95807 15.4316 9.93724 13.0919Z" fill="#FFFFFF" fill-rule="nonzero" fill-opacity="1" transform="matrix(-1 0 0 1 1168 280)"/><path d="M54.3048 33.9263C53.7687 33.9261 53.334 34.3607 53.3339 34.8968 53.3339 34.897 53.3339 34.8972 53.3339 34.8973L53.3339 42.2484 48.9158 42.2484C48.3795 42.2589 47.9532 42.7021 47.9636 43.2384 47.9738 43.76 48.3942 44.1804 48.9158 44.1906L54.3048 44.1906C54.841 44.1907 55.2758 43.7561 55.2759 43.22 55.2759 43.2198 55.2759 43.2197 55.2759 43.2195L55.2759 34.8973C55.276 34.3612 54.8415 33.9264 54.3053 33.9263 54.3052 33.9263 54.305 33.9263 54.3048 33.9263Z" fill="#FFFFFF" fill-rule="nonzero" fill-opacity="1" transform="matrix(-1 0 0 1 1168 280)"/><path d="M13.1226 42.2484 8.66562 42.2484 8.66562 34.8973C8.65503 34.3611 8.21169 33.9348 7.67539 33.9455 7.154 33.9558 6.73379 34.376 6.72352 34.8974L6.72352 43.2195C6.72339 43.7556 7.15791 44.1904 7.69406 44.1906 7.69423 44.1906 7.6944 44.1906 7.69457 44.1906L13.1226 44.1906C13.6589 44.1801 14.0851 43.7369 14.0747 43.2006 14.0646 42.6791 13.6442 42.2586 13.1226 42.2484Z" fill="#FFFFFF" fill-rule="nonzero" fill-opacity="1" transform="matrix(-1 0 0 1 1168 280)"/></g></g></g></g></g></svg>