<svg width="62" height="62" xmlns="http://www.w3.org/2000/svg" xmlns:xlink="http://www.w3.org/1999/xlink" xml:space="preserve" overflow="hidden"><g transform="translate(-116 -280)"><g><path d="M176.687 319.724C176.264 318.479 175.256 317.575 173.848 317.179 172.335 316.754 170.37 316.89 168.005 317.586L157.265 320.746C157.221 320.657 157.174 320.57 157.124 320.483 156.521 319.44 155.551 318.695 154.394 318.386L146.755 316.345C141.17 312.439 138.18 313.565 133.784 315.719 131.353 316.91 128.89 318.079 126.381 319.265L126.183 318.816C125.605 317.501 124.063 316.9 122.747 317.477L118.655 319.273C118.013 319.554 117.521 320.066 117.269 320.713 117.016 321.361 117.033 322.071 117.315 322.712L124.634 339.352C125.063 340.328 126.022 340.91 127.026 340.91 127.376 340.91 127.73 340.84 128.07 340.691L132.163 338.896C132.804 338.614 133.296 338.102 133.549 337.455 133.801 336.807 133.785 336.097 133.503 335.456L132.788 333.832 136.44 332.053C137.419 331.576 138.403 331.491 139.449 331.794L148.035 334.28C148.667 334.463 149.319 334.542 149.981 334.542 152.267 334.542 154.663 333.607 156.676 332.822 156.853 332.753 157.027 332.685 157.197 332.619L173.303 326.399C175.918 325.39 177.53 322.208 176.687 319.724ZM131.969 336.839C131.881 337.065 131.708 337.244 131.481 337.343L127.389 339.138C126.928 339.341 126.388 339.13 126.186 338.669L118.866 322.03C118.767 321.803 118.76 321.554 118.848 321.329 118.936 321.103 119.109 320.924 119.336 320.825L123.428 319.03C123.547 318.978 123.671 318.953 123.794 318.953 124.145 318.953 124.481 319.157 124.631 319.499L131.951 336.138C132.05 336.365 132.057 336.614 131.969 336.839ZM172.693 324.818 156.587 331.038C156.415 331.104 156.239 331.173 156.06 331.243 153.702 332.162 150.768 333.307 148.507 332.652L139.921 330.166C138.473 329.747 137.052 329.869 135.698 330.529L132.105 332.279 127.064 320.817C129.593 319.622 132.076 318.444 134.53 317.241 138.63 315.233 140.998 314.346 145.9 317.817 145.982 317.875 146.074 317.918 146.171 317.944L153.956 320.024C154.676 320.216 155.28 320.681 155.657 321.332 156.033 321.983 156.135 322.738 155.942 323.458 155.75 324.178 155.285 324.782 154.634 325.159 153.983 325.535 153.228 325.637 152.508 325.444L142.162 322.68C141.71 322.559 141.245 322.828 141.124 323.28 141.004 323.733 141.272 324.197 141.725 324.318L152.071 327.082C153.228 327.391 154.44 327.229 155.483 326.626 156.526 326.023 157.271 325.053 157.58 323.896 157.714 323.394 157.76 322.883 157.719 322.379L168.483 319.213C172.035 318.167 174.502 318.562 175.082 320.269 175.631 321.887 174.448 324.14 172.693 324.818ZM159.648 283.452C159.782 283.003 160.253 282.748 160.702 282.881 167.855 285.007 172.375 291.904 171.688 299.135L173.567 297.755C173.944 297.478 174.474 297.559 174.752 297.937 175.029 298.314 174.948 298.844 174.57 299.121L171.016 301.733C170.87 301.84 170.694 301.897 170.514 301.897 170.472 301.897 170.429 301.894 170.386 301.888 170.164 301.854 169.964 301.733 169.831 301.552L167.22 297.997C166.943 297.62 167.024 297.089 167.401 296.812 167.779 296.535 168.309 296.616 168.586 296.994L170.005 298.925C170.591 292.506 166.57 286.394 160.219 284.506 159.77 284.373 159.515 283.901 159.648 283.452ZM147.376 310.276 147.632 312.592C147.683 313.057 147.348 313.476 146.883 313.528 146.851 313.531 146.819 313.533 146.788 313.533 146.362 313.533 145.995 313.212 145.947 312.778L145.462 308.395C145.438 308.171 145.503 307.947 145.643 307.772 145.784 307.596 145.988 307.484 146.212 307.459L150.595 306.975C151.061 306.924 151.48 307.259 151.531 307.724 151.583 308.19 151.247 308.609 150.782 308.66L148.399 308.923C153.666 312.643 160.965 312.218 165.78 307.658 166.12 307.336 166.656 307.35 166.978 307.69 167.3 308.03 167.286 308.567 166.946 308.889 161.523 314.024 153.296 314.489 147.376 310.276ZM141.301 301.292C139.565 294.028 143.276 286.671 149.884 283.65L147.75 282.714C147.322 282.526 147.127 282.026 147.315 281.597 147.503 281.168 148.003 280.973 148.431 281.161L152.47 282.934C152.899 283.122 153.094 283.622 152.906 284.05L151.133 288.089C150.945 288.517 150.445 288.712 150.016 288.525 149.588 288.336 149.393 287.836 149.581 287.408L150.544 285.213C144.69 287.914 141.408 294.447 142.95 300.898 143.059 301.353 142.778 301.81 142.322 301.919 142.256 301.935 142.19 301.942 142.125 301.942 141.741 301.942 141.394 301.681 141.301 301.292ZM155.859 294.88C152.189 295.117 149.276 298.176 149.276 301.904 149.276 302.726 149.708 303.865 151.766 304.623 152.98 305.07 154.596 305.317 156.316 305.317 159.564 305.317 163.357 304.423 163.357 301.904 163.357 298.176 160.443 295.117 156.774 294.88 158.605 294.654 160.026 293.09 160.026 291.199 160.026 289.154 158.362 287.49 156.316 287.49 154.271 287.49 152.607 289.154 152.607 291.199 152.606 293.09 154.028 294.654 155.859 294.88ZM161.662 301.904C161.662 302.716 159.466 303.621 156.316 303.621 153.166 303.621 150.971 302.716 150.971 301.904 150.971 298.957 153.369 296.559 156.316 296.559 159.264 296.559 161.662 298.957 161.662 301.904ZM156.316 289.185C157.427 289.185 158.331 290.089 158.331 291.199 158.331 292.31 157.427 293.214 156.316 293.214 155.206 293.214 154.302 292.31 154.302 291.199 154.302 290.089 155.206 289.185 156.316 289.185Z" fill="#FFFFFF" fill-rule="nonzero" fill-opacity="1"/></g></g></svg>