<svg width="49" height="50" xmlns="http://www.w3.org/2000/svg" xmlns:xlink="http://www.w3.org/1999/xlink" xml:space="preserve" overflow="hidden"><defs><clipPath id="clip0"><rect x="473" y="366" width="49" height="50"/></clipPath><clipPath id="clip1"><rect x="473" y="366" width="49" height="50"/></clipPath><clipPath id="clip2"><rect x="474" y="367" width="48" height="48"/></clipPath><clipPath id="clip3"><rect x="474" y="367" width="48" height="48"/></clipPath><clipPath id="clip4"><rect x="474" y="367" width="48" height="48"/></clipPath></defs><g clip-path="url(#clip0)" transform="translate(-473 -366)"><g clip-path="url(#clip1)"><g clip-path="url(#clip2)"><g clip-path="url(#clip3)"><g clip-path="url(#clip4)"><path d="M508.908 392.208 497.78 392.208 497.78 390.621 508.908 390.621C512.777 390.621 515.925 387.473 515.925 383.604 515.925 381.728 515.195 379.965 513.871 378.641 512.547 377.317 510.784 376.588 508.908 376.588L503.535 376.588 503.535 375 508.908 375C511.208 375 513.37 375.895 514.994 377.519 516.618 379.142 517.512 381.304 517.512 383.604 517.512 388.349 513.652 392.208 508.908 392.208Z" fill="#FFFFFF" fill-rule="nonzero" fill-opacity="1"/><path d="M492.224 406.233 512.099 406.233 512.099 407.821 492.224 407.821Z" fill="#FFFFFF" fill-rule="nonzero" fill-opacity="1"/><path d="M486.533 407.821 484.247 407.821C479.503 407.821 475.643 403.961 475.643 399.217 475.643 396.925 476.537 394.765 478.16 393.133 479.78 391.512 481.941 390.621 484.247 390.621L492.089 390.621 492.089 392.208 484.247 392.208C482.366 392.208 480.603 392.935 479.284 394.253 477.96 395.585 477.23 397.348 477.23 399.217 477.23 403.086 480.378 406.233 484.247 406.233L486.533 406.233 486.533 407.821Z" fill="#FFFFFF" fill-rule="nonzero" fill-opacity="1"/><path d="M480.517 375 497.844 375 497.844 376.588 480.517 376.588Z" fill="#FFFFFF" fill-rule="nonzero" fill-opacity="1"/><path d="M477.671 379.052C475.647 379.052 474 377.405 474 375.381 474 373.357 475.647 371.71 477.671 371.71 479.695 371.71 481.342 373.357 481.342 375.381 481.342 377.405 479.695 379.052 477.671 379.052ZM477.671 373.298C476.522 373.298 475.587 374.232 475.587 375.381 475.587 376.53 476.522 377.465 477.671 377.465 478.82 377.465 479.755 376.53 479.755 375.381 479.755 374.232 478.82 373.298 477.671 373.298Z" fill="#FFFFFF" fill-rule="nonzero" fill-opacity="1"/><path d="M500.685 379.048C498.874 379.048 497.314 377.698 497.058 375.906 497.03 375.753 497.018 375.573 497.018 375.381 497.018 373.359 498.663 371.714 500.685 371.714 502.712 371.714 504.36 373.359 504.36 375.381 504.36 375.573 504.348 375.753 504.316 375.933 504.064 377.698 502.502 379.048 500.685 379.048ZM500.685 373.302C499.539 373.302 498.606 374.234 498.606 375.381 498.606 375.476 498.609 375.565 498.625 375.655 498.774 376.696 499.658 377.461 500.685 377.461 501.717 377.461 502.604 376.696 502.749 375.681 502.769 375.565 502.773 375.476 502.773 375.381 502.773 374.234 501.836 373.302 500.685 373.302Z" fill="#FFFFFF" fill-rule="nonzero" fill-opacity="1"/><path d="M494.931 394.669C493.118 394.669 491.559 393.318 491.303 391.527 491.276 391.373 491.264 391.193 491.264 391.002 491.264 388.976 492.909 387.327 494.931 387.327 496.957 387.327 498.606 388.976 498.606 391.002 498.606 391.193 498.594 391.373 498.561 391.553 498.31 393.318 496.747 394.669 494.931 394.669ZM494.931 388.914C493.784 388.914 492.851 389.851 492.851 391.002 492.851 391.096 492.855 391.186 492.87 391.276 493.02 392.317 493.904 393.081 494.931 393.081 495.962 393.081 496.85 392.317 496.994 391.302 497.015 391.186 497.018 391.096 497.018 391.002 497.018 389.851 496.082 388.914 494.931 388.914Z" fill="#FFFFFF" fill-rule="nonzero" fill-opacity="1"/><path d="M489.382 410.29C487.555 410.29 485.992 408.933 485.747 407.134 485.719 406.985 485.707 406.804 485.707 406.623 485.707 404.596 487.356 402.948 489.382 402.948 491.404 402.948 493.049 404.597 493.049 406.623 493.049 406.804 493.038 406.985 493.005 407.167 492.765 408.933 491.205 410.29 489.382 410.29ZM489.382 404.535C488.231 404.535 487.295 405.472 487.295 406.623 487.295 406.711 487.299 406.799 487.314 406.888 487.458 407.937 488.345 408.702 489.382 408.702 490.416 408.702 491.299 407.937 491.438 406.92 491.458 406.799 491.462 406.711 491.462 406.623 491.462 405.472 490.529 404.535 489.382 404.535Z" fill="#FFFFFF" fill-rule="nonzero" fill-opacity="1"/><path d="M513.843 409.496C512.444 409.496 511.305 408.357 511.305 406.958 511.305 405.559 512.443 404.421 513.843 404.421 515.242 404.421 516.38 405.559 516.38 406.958 516.38 408.357 515.242 409.496 513.843 409.496ZM513.843 406.008C513.319 406.008 512.893 406.434 512.893 406.958 512.893 407.482 513.319 407.909 513.843 407.909 514.367 407.909 514.793 407.482 514.793 406.958 514.793 406.434 514.367 406.008 513.843 406.008Z" fill="#FFFFFF" fill-rule="nonzero" fill-opacity="1"/><path d="M513.843 395.738C513.404 395.738 513.049 395.383 513.049 394.944L513.049 393.975C513.049 393.537 513.404 393.181 513.843 393.181 514.281 393.181 514.636 393.537 514.636 393.975L514.636 394.944C514.636 395.383 514.281 395.738 513.843 395.738Z" fill="#FFFFFF" fill-rule="nonzero" fill-opacity="1"/><path d="M513.843 406.008C513.404 406.008 513.049 405.653 513.049 405.214L513.049 399.982C513.049 399.544 513.404 399.189 513.843 399.189 514.281 399.189 514.636 399.544 514.636 399.982L514.636 405.214C514.636 405.653 514.281 406.008 513.843 406.008Z" fill="#FFFFFF" fill-rule="nonzero" fill-opacity="1"/><path d="M521.206 400.776 513.843 400.776C513.404 400.776 513.049 400.421 513.049 399.982L513.049 394.944C513.049 394.506 513.404 394.151 513.843 394.151L521.206 394.151C521.502 394.151 521.773 394.315 521.91 394.577 522.047 394.839 522.027 395.155 521.858 395.397L520.422 397.463 521.858 399.529C522.027 399.772 522.047 400.088 521.91 400.35 521.773 400.612 521.502 400.776 521.206 400.776ZM514.636 399.188 519.688 399.188 518.803 397.916C518.614 397.643 518.614 397.282 518.803 397.009L519.688 395.738 514.637 395.738 514.637 399.188Z" fill="#FFFFFF" fill-rule="nonzero" fill-opacity="1"/></g></g></g></g></g></svg>