<svg width="49" height="48" xmlns="http://www.w3.org/2000/svg" xmlns:xlink="http://www.w3.org/1999/xlink" xml:space="preserve" overflow="hidden"><g transform="translate(-757 -364)"><g><g><g><g><path d="M801.373 391.477C801.577 390.337 801.68 389.167 801.68 388 801.68 386.833 801.577 385.663 801.373 384.523 801.31 384.166 801.547 383.826 801.904 383.762 802.262 383.698 802.602 383.936 802.666 384.293 802.882 385.509 802.992 386.756 802.992 388 802.992 389.244 802.882 390.492 802.666 391.707 802.609 392.025 802.332 392.248 802.02 392.248 801.982 392.248 801.943 392.245 801.904 392.238 801.548 392.174 801.31 391.834 801.373 391.477ZM778.523 368.626C780.803 368.22 783.198 368.22 785.477 368.626 785.516 368.633 785.555 368.637 785.593 368.637 785.905 368.637 786.181 368.413 786.238 368.096 786.302 367.739 786.064 367.398 785.707 367.334 783.277 366.901 780.724 366.901 778.293 367.334 777.936 367.398 777.698 367.739 777.762 368.096 777.826 368.452 778.167 368.691 778.523 368.627ZM762.134 383.584C761.778 383.517 761.435 383.752 761.368 384.108 761.129 385.383 761.008 386.692 761.008 388 761.008 391.742 762.006 395.417 763.894 398.627 764.016 398.835 764.235 398.95 764.46 398.95 764.573 398.95 764.688 398.921 764.792 398.86 765.105 398.676 765.209 398.274 765.025 397.961 763.256 394.953 762.32 391.508 762.32 388 762.32 386.773 762.434 385.545 762.658 384.35 762.725 383.993 762.49 383.651 762.134 383.584ZM785.562 407.358C784.395 407.572 783.196 407.68 782 407.68 778.492 407.68 775.048 406.744 772.039 404.975 771.726 404.791 771.324 404.895 771.14 405.208 770.957 405.52 771.061 405.922 771.373 406.106 774.584 407.994 778.258 408.992 782 408.992 783.275 408.992 784.553 408.877 785.798 408.649 786.154 408.584 786.391 408.242 786.325 407.886 786.26 407.529 785.919 407.293 785.562 407.358ZM791.987 388C791.987 393.507 787.507 397.987 782 397.987 776.493 397.987 772.013 393.507 772.013 388 772.013 382.493 776.493 378.013 782 378.013 787.507 378.013 791.987 382.493 791.987 388ZM790.674 388C790.674 383.217 786.783 379.326 782 379.326 777.217 379.326 773.326 383.217 773.326 388 773.326 392.783 777.217 396.674 782 396.674 786.783 396.674 790.674 392.783 790.674 388ZM779.444 387.216 779.444 392.722C779.444 393.084 779.15 393.378 778.788 393.378L776.232 393.378C775.87 393.378 775.576 393.084 775.576 392.722L775.576 387.216C775.576 386.853 775.87 386.559 776.232 386.559L778.788 386.559C779.15 386.559 779.444 386.853 779.444 387.216ZM778.132 387.872 776.889 387.872 776.889 392.066 778.132 392.066ZM783.934 381.872 783.934 392.722C783.934 393.084 783.64 393.378 783.278 393.378L780.722 393.378C780.36 393.378 780.066 393.084 780.066 392.722L780.066 381.872C780.066 381.509 780.36 381.216 780.722 381.216L783.278 381.216C783.64 381.216 783.934 381.509 783.934 381.872ZM782.622 382.528 781.378 382.528 781.378 392.066 782.622 392.066ZM788.424 384.684 788.424 392.722C788.424 393.084 788.13 393.378 787.768 393.378L785.212 393.378C784.849 393.378 784.556 393.084 784.556 392.722L784.556 384.684C784.556 384.322 784.849 384.028 785.212 384.028L787.768 384.028C788.13 384.028 788.424 384.322 788.424 384.684ZM787.111 385.341 785.868 385.341 785.868 392.066 787.111 392.066ZM805.625 402.687C805.625 407.615 801.615 411.625 796.687 411.625 791.759 411.625 787.749 407.615 787.749 402.687 787.749 401.475 787.992 400.32 788.43 399.265 786.534 400.352 784.338 400.974 782 400.974 779.662 400.974 777.374 400.346 775.377 399.158 774.816 398.824 774.135 398.896 773.658 399.33 773.946 400.031 773.807 400.868 773.239 401.436L766.099 408.576C765.455 409.22 764.608 409.542 763.762 409.542 762.915 409.542 762.069 409.22 761.424 408.576 760.136 407.287 760.135 405.19 761.424 403.901L768.564 396.762C768.928 396.397 769.414 396.196 769.931 396.196 770.189 396.196 770.44 396.246 770.671 396.341 771.104 395.864 771.175 395.183 770.842 394.623 769.654 392.626 769.026 390.336 769.026 388 769.026 385.664 769.648 383.466 770.735 381.569 769.68 382.008 768.525 382.251 767.313 382.251 762.385 382.251 758.375 378.241 758.375 373.313 758.375 368.385 762.385 364.375 767.313 364.375 772.241 364.375 776.251 368.385 776.251 373.313 776.251 374.525 776.008 375.68 775.57 376.735 777.466 375.648 779.662 375.026 782 375.026 784.338 375.026 786.534 375.648 788.43 376.735 787.992 375.68 787.749 374.524 787.749 373.313 787.749 368.384 791.759 364.375 796.687 364.375 801.615 364.375 805.625 368.384 805.625 373.313 805.625 378.241 801.615 382.251 796.687 382.251 795.476 382.251 794.32 382.008 793.265 381.569 794.352 383.466 794.974 385.661 794.974 388 794.974 390.338 794.352 392.534 793.265 394.43 794.32 393.992 795.476 393.749 796.687 393.749 801.615 393.749 805.625 397.758 805.625 402.687ZM796.687 380.938C798.68 380.938 800.496 380.169 801.855 378.913 801.317 376.501 799.195 374.784 796.687 374.784 794.179 374.784 792.057 376.501 791.519 378.913 792.879 380.169 794.694 380.938 796.687 380.938ZM798.867 371.272C798.867 370.07 797.889 369.092 796.687 369.092 795.485 369.092 794.507 370.07 794.507 371.272 794.507 372.474 795.485 373.452 796.687 373.452 797.889 373.452 798.867 372.474 798.867 371.272ZM789.062 373.313C789.062 374.971 789.595 376.507 790.498 377.76 790.885 376.729 791.527 375.801 792.374 375.072 792.97 374.558 793.65 374.159 794.377 373.888 793.652 373.247 793.194 372.312 793.194 371.272 793.194 369.346 794.761 367.779 796.687 367.779 798.613 367.779 800.18 369.346 800.18 371.272 800.18 372.312 799.722 373.247 798.997 373.888 799.725 374.159 800.404 374.558 801.001 375.072 801.847 375.801 802.489 376.729 802.876 377.76 803.779 376.507 804.312 374.971 804.312 373.313 804.312 369.108 800.892 365.688 796.687 365.688 792.482 365.688 789.061 369.108 789.061 373.313ZM759.688 373.313C759.688 374.971 760.221 376.507 761.124 377.759 761.511 376.729 762.153 375.801 763 375.072 763.596 374.558 764.276 374.159 765.003 373.888 764.279 373.247 763.82 372.312 763.82 371.272 763.82 369.346 765.387 367.779 767.313 367.779 769.239 367.779 770.806 369.346 770.806 371.272 770.806 372.312 770.348 373.247 769.623 373.888 770.351 374.159 771.03 374.558 771.627 375.072 772.473 375.801 773.115 376.729 773.502 377.759 774.405 376.507 774.939 374.971 774.939 373.313 774.939 369.108 771.518 365.688 767.313 365.688 763.108 365.688 759.688 369.108 759.688 373.313ZM769.493 371.272C769.493 370.07 768.515 369.092 767.313 369.092 766.111 369.092 765.133 370.07 765.133 371.272 765.133 372.474 766.111 373.452 767.313 373.452 768.515 373.452 769.493 372.474 769.493 371.272ZM767.313 380.938C769.306 380.938 771.122 380.169 772.482 378.913 771.943 376.501 769.821 374.784 767.313 374.784 764.805 374.784 762.683 376.501 762.145 378.913 763.505 380.169 765.32 380.938 767.313 380.938ZM772.311 399.629 770.371 397.69C770.255 397.573 770.098 397.508 769.932 397.508 769.765 397.508 769.609 397.573 769.492 397.69L762.353 404.829C761.576 405.606 761.576 406.87 762.353 407.648 763.13 408.425 764.394 408.425 765.171 407.648L772.311 400.508C772.553 400.266 772.553 399.871 772.311 399.629ZM782 399.661C788.43 399.661 793.662 394.43 793.662 388 793.662 381.57 788.43 376.339 782 376.339 775.57 376.339 770.339 381.57 770.339 388 770.339 390.1 770.903 392.158 771.97 393.952 772.59 394.994 772.475 396.257 771.699 397.161L772.839 398.301C773.743 397.525 775.005 397.41 776.048 398.03 777.842 399.097 779.9 399.661 782 399.661ZM796.687 410.312C798.68 410.312 800.496 409.543 801.855 408.287 801.317 405.875 799.195 404.158 796.687 404.158 794.179 404.158 792.057 405.875 791.519 408.287 792.879 409.543 794.694 410.312 796.687 410.312ZM798.867 400.646C798.867 399.444 797.889 398.466 796.687 398.466 795.485 398.466 794.507 399.444 794.507 400.646 794.507 401.848 795.485 402.826 796.687 402.826 797.889 402.826 798.867 401.848 798.867 400.646ZM804.313 402.687C804.313 398.482 800.892 395.062 796.687 395.062 792.482 395.062 789.062 398.482 789.062 402.687 789.062 404.345 789.595 405.881 790.498 407.134 790.885 406.103 791.527 405.175 792.374 404.446 792.97 403.932 793.65 403.533 794.377 403.262 793.652 402.622 793.194 401.686 793.194 400.646 793.194 398.72 794.761 397.153 796.687 397.153 798.613 397.153 800.18 398.72 800.18 400.646 800.18 401.686 799.722 402.622 798.997 403.262 799.725 403.533 800.404 403.932 801.001 404.446 801.847 405.175 802.489 406.103 802.876 407.134 803.779 405.881 804.313 404.345 804.313 402.687Z" fill="#FFFFFF" fill-rule="nonzero" fill-opacity="1"/></g></g></g></g></g></svg>